<svg xmlns="http://www.w3.org/2000/svg" viewBox="0 0 32 32">
  <!-- Background circle -->
  <circle cx="16" cy="16" r="16" fill="#84cc16"/>
  
  <!-- Leaf/Plant icon -->
  <path d="M16 8c-2 0-3.5 1-4.5 2.5C10.5 12 10 14 10 16c0 3 1.5 5 4 6v2c0 0.5 0.5 1 1 1h2c0.5 0 1-0.5 1-1v-2c2.5-1 4-3 4-6 0-2-0.5-4-1.5-5.5C19.5 9 18 8 16 8zm0 2c1 0 2 0.5 2.5 1.5 0.7 1 1 2.5 1 4 0 2-1 3.5-2.5 4.2-0.3 0.2-0.5 0.5-0.5 0.8v1.5h-1v-1.5c0-0.3-0.2-0.6-0.5-0.8C13.5 18.5 12.5 17 12.5 15c0-1.5 0.3-3 1-4C14 10.5 15 10 16 10z" fill="white"/>
  
  <!-- Small leaf detail -->
  <path d="M16 12c-0.8 0-1.5 0.5-2 1.2 0.3-0.1 0.6-0.2 1-0.2 1.1 0 2 0.9 2 2 0 0.4-0.1 0.7-0.3 1 0.5-0.5 0.8-1.2 0.8-2C17.5 12.9 16.8 12 16 12z" fill="white" opacity="0.7"/>
</svg>
